<svg xmlns="http://www.w3.org/2000/svg" width="64" height="63" fill="none" viewBox="0 0 64 63"><path fill="#EFEFF4" d="M60.2792 42.4985C53.95 57.2925 37.243 63.6465 24.1531 62.5631C20.579 62.2674 13.3877 61.6722 7.77241 56.3623C-3.01057 46.1649 -1.35054 24.8496 8.9725 12.3002C10.302 10.6842 19.5035 -0.143493 33.8423 0.00144166C44.3423 0.107474 51.7095 6.03773 52.6046 6.77652C53.7369 7.71153 56.2338 9.92789 58.4832 13.4462C63.7697 21.7134 64.2345 33.2558 60.2792 42.4985Z"/><path fill="#D7D9E0" d="M7.11523 3.0874C6.99853 2.75759 7.37928 2.47323 7.66605 2.67428C10.572 4.72161 17.7567 11.0657 18.0032 23.8918C18.313 39.9851 22.4239 45.2919 27.0229 48.2332C27.0229 48.2332 21.1549 47.3726 16.7825 42.0172C6.04802 28.8657 9.19458 8.95431 7.11523 3.0874Z"/><g style="mix-blend-mode:soft-light"><path fill="#fff" d="M9.76635 7.75282C10.3364 9.46862 10.8725 11.1954 11.3444 12.9381C11.8264 14.6787 12.2536 16.432 12.6261 18.1981C12.9921 19.9645 13.325 21.7374 13.5818 23.5217C13.8469 25.305 14.0349 27.0976 14.2173 28.8981C14.4098 30.6965 14.5936 32.5094 14.9633 34.3092C15.3331 36.109 15.9187 37.8864 16.8144 39.5075C17.0378 39.9114 17.2699 40.3128 17.5233 40.6966C17.7694 41.0853 18.0331 41.4629 18.3034 41.8358C18.8475 42.5809 19.4433 43.2869 20.0863 43.9485C21.3786 45.2674 22.871 46.389 24.4677 47.2906C24.5073 47.3138 24.5511 47.3289 24.5966 47.3352C24.6421 47.3414 24.6883 47.3386 24.7328 47.327C24.7772 47.3154 24.8188 47.2951 24.8554 47.2673C24.892 47.2396 24.9227 47.2049 24.9459 47.1653C24.9691 47.1257 24.9842 47.0819 24.9904 47.0364C24.9967 46.9909 24.9939 46.9447 24.9823 46.9003C24.9706 46.8559 24.9504 46.8142 24.9226 46.7776C24.8949 46.741 24.8602 46.7103 24.8206 46.6871C24.4384 46.4568 24.0594 46.2224 23.6921 45.9721C23.5065 45.8495 23.3265 45.7194 23.1444 45.5934C22.9671 45.4598 22.7846 45.3331 22.6118 45.1941C21.9108 44.6508 21.2499 44.0575 20.6344 43.419C19.4002 42.1494 18.3491 40.6884 17.4909 39.1416C17.0698 38.3632 16.708 37.5542 16.4085 36.7214C16.1119 35.884 15.8716 35.0276 15.6894 34.1581C15.3169 32.4133 15.12 30.6204 14.9148 28.822C14.7096 27.0236 14.4858 25.2203 14.1918 23.4278C14.0466 22.5313 13.8859 21.6377 13.7099 20.747C13.6238 20.3012 13.5291 19.8571 13.4345 19.413C13.3398 18.9689 13.2358 18.5272 13.1319 18.0855C12.7123 16.3183 12.2387 14.5671 11.7111 12.8321C11.1747 11.0997 10.5926 9.38186 9.94536 7.68982C9.93701 7.6664 9.91969 7.64726 9.89723 7.6366C9.87476 7.62595 9.84898 7.62466 9.82556 7.63301C9.80214 7.64137 9.783 7.65868 9.77235 7.68115C9.76169 7.70362 9.7604 7.7294 9.76876 7.75282H9.76635Z"/></g><path fill="#C6C9D3" d="M21.242 52.751C21.2357 52.8909 21.195 53.0271 21.1236 53.1476C21.0523 53.2681 20.9523 53.3691 20.8327 53.4419C20.713 53.5146 20.5773 53.5568 20.4375 53.5648C20.2976 53.5727 20.158 53.5461 20.0309 53.4874C16.9907 52.0914 8.75219 47.3667 5.87313 36.1827C3.44195 26.7379 1.22559 21.8476 0.0664643 19.6974C-0.17865 19.2429 0.299185 18.7393 0.766348 18.9596C5.9227 21.3887 22.1385 30.7998 21.242 52.751Z"/><g style="mix-blend-mode:soft-light"><path fill="#fff" d="M20.4608 53.0033C20.4514 53.0159 20.4407 53.0274 20.4288 53.0377C20.3808 53.0781 20.3187 53.0978 20.2561 53.0925C20.1936 53.0871 20.1357 53.0571 20.0952 53.0091C19.9999 52.8959 10.5065 41.5221 6.53132 28.5428C6.51635 28.4837 6.52468 28.4212 6.5546 28.3682C6.58451 28.3151 6.63371 28.2757 6.69197 28.2579C6.75023 28.2402 6.81308 28.2456 6.86747 28.273C6.92185 28.3004 6.96359 28.3477 6.98402 28.4051C10.9289 41.2874 20.3617 52.5898 20.4574 52.7024C20.4929 52.7443 20.5126 52.7973 20.5132 52.8522C20.5139 52.9071 20.4953 52.9606 20.4608 53.0033Z"/></g><path fill="#F7E057" d="M31.3754 49.8692C43.4827 49.8692 53.2976 40.0542 53.2976 27.9469C53.2976 15.8396 43.4827 6.02466 31.3754 6.02466C19.2681 6.02466 9.45312 15.8396 9.45312 27.9469C9.45312 40.0542 19.2681 49.8692 31.3754 49.8692Z"/><path fill="#F3D33F" d="M31.3753 45.1914C40.8991 45.1914 48.6197 37.4708 48.6197 27.9469C48.6197 18.4231 40.8991 10.7025 31.3753 10.7025C21.8515 10.7025 14.1309 18.4231 14.1309 27.9469C14.1309 37.4708 21.8515 45.1914 31.3753 45.1914Z"/><g opacity=".56"><path fill="#fff" d="M50.4382 28.434H50.4323C50.4024 28.4333 50.3728 28.4267 50.3454 28.4146C50.318 28.4024 50.2932 28.385 50.2725 28.3633C50.2519 28.3416 50.2356 28.316 50.2248 28.288C50.214 28.2601 50.2089 28.2302 50.2096 28.2003C50.2134 28.0498 50.2151 27.898 50.2151 27.7489C50.2139 27.7182 50.2189 27.6875 50.2299 27.6588C50.2408 27.63 50.2575 27.6038 50.2788 27.5816C50.3001 27.5594 50.3257 27.5418 50.354 27.5297C50.3823 27.5177 50.4128 27.5115 50.4435 27.5115C50.4743 27.5115 50.5047 27.5177 50.533 27.5297C50.5614 27.5418 50.5869 27.5594 50.6083 27.5816C50.6296 27.6038 50.6462 27.63 50.6572 27.6588C50.6681 27.6875 50.6731 27.7182 50.6719 27.7489C50.6719 27.9014 50.6719 28.0588 50.6664 28.2109C50.665 28.2705 50.6403 28.3272 50.5977 28.3689C50.5551 28.4106 50.4978 28.4339 50.4382 28.434Z"/><path fill="#fff" d="M31.5737 46.8469H31.5417C31.4826 46.8446 31.4268 46.8195 31.3858 46.7769C31.3448 46.7343 31.3219 46.6775 31.3219 46.6184C31.3219 46.5594 31.3448 46.5026 31.3858 46.46C31.4268 46.4174 31.4826 46.3923 31.5417 46.39H31.573C31.8625 46.39 32.1558 46.3835 32.4443 46.3701C32.5037 46.3691 32.5612 46.3914 32.6045 46.4321C32.6478 46.4728 32.6736 46.5287 32.6763 46.5881C32.679 46.6475 32.6585 46.7056 32.6192 46.7501C32.5798 46.7946 32.5246 46.822 32.4653 46.8266C32.1699 46.84 31.8704 46.8469 31.5737 46.8469ZM33.3659 46.7629C33.3065 46.7639 33.2491 46.7418 33.2057 46.7012C33.1624 46.6606 33.1366 46.6047 33.1338 46.5453C33.131 46.486 33.1515 46.4279 33.1908 46.3834C33.2302 46.3389 33.2853 46.3115 33.3446 46.3071C33.643 46.2792 33.9443 46.2434 34.2396 46.201C34.2996 46.1924 34.3605 46.208 34.4089 46.2443C34.4574 46.2807 34.4894 46.3347 34.498 46.3947C34.5066 46.4546 34.491 46.5155 34.4547 46.564C34.4184 46.6124 34.3643 46.6445 34.3044 46.653C34.0011 46.6964 33.6923 46.7333 33.3869 46.7618L33.3659 46.7629ZM35.1726 46.504C35.1155 46.5044 35.0604 46.4834 35.018 46.4452C34.9756 46.4069 34.9491 46.3542 34.9437 46.2973C34.9383 46.2405 34.9544 46.1837 34.9888 46.1382C35.0232 46.0926 35.0734 46.0616 35.1296 46.0513C35.4232 45.9948 35.7196 45.9301 36.0105 45.8588C36.0694 45.8445 36.1315 45.854 36.1833 45.8855C36.2351 45.9169 36.2722 45.9676 36.2866 46.0265C36.301 46.0853 36.2914 46.1475 36.26 46.1993C36.2285 46.251 36.1778 46.2882 36.119 46.3026C35.8208 46.3756 35.5172 46.4403 35.216 46.4998C35.2017 46.5028 35.1872 46.5041 35.1726 46.504ZM36.9462 46.0712C36.8914 46.0711 36.8385 46.0513 36.7971 46.0153C36.7556 45.9794 36.7285 45.9298 36.7206 45.8755C36.7127 45.8213 36.7246 45.766 36.7541 45.7198C36.7836 45.6736 36.8287 45.6395 36.8812 45.6237C37.169 45.5387 37.4575 45.445 37.7394 45.3483C37.7966 45.3283 37.8593 45.3317 37.9139 45.358C37.9685 45.3842 38.0104 45.4311 38.0305 45.4882C38.0505 45.5454 38.047 45.6082 38.0208 45.6628C37.9946 45.7173 37.9477 45.7593 37.8905 45.7793C37.6017 45.8805 37.3053 45.9762 37.0113 46.0633C36.9901 46.0691 36.9682 46.0718 36.9462 46.0712ZM38.6675 45.4684C38.6145 45.4686 38.563 45.4503 38.522 45.4167C38.4809 45.383 38.4529 45.3361 38.4427 45.284C38.4325 45.2319 38.4408 45.1779 38.4661 45.1313C38.4915 45.0847 38.5322 45.0483 38.5815 45.0285C38.8569 44.9159 39.1361 44.7954 39.4077 44.6698C39.4351 44.6549 39.4653 44.6457 39.4963 44.6429C39.5274 44.6402 39.5587 44.6438 39.5883 44.6535C39.6179 44.6633 39.6452 44.679 39.6685 44.6998C39.6917 44.7205 39.7105 44.7458 39.7237 44.774C39.7368 44.8023 39.7441 44.833 39.7449 44.8641C39.7457 44.8953 39.7402 44.9263 39.7286 44.9553C39.717 44.9842 39.6995 45.0104 39.6774 45.0324C39.6553 45.0543 39.6288 45.0715 39.5998 45.0829C39.322 45.2116 39.0376 45.3356 38.754 45.4505C38.7265 45.4621 38.697 45.4682 38.6672 45.4684H38.6675ZM40.32 44.7018C40.269 44.7017 40.2195 44.6845 40.1794 44.653C40.1392 44.6215 40.1108 44.5775 40.0985 44.528C40.0863 44.4785 40.091 44.4263 40.1119 44.3797C40.1327 44.3332 40.1685 44.2949 40.2136 44.2711C40.4787 44.1334 40.7434 43.9854 41.0013 43.8339C41.0535 43.8032 41.1158 43.7945 41.1744 43.8098C41.233 43.825 41.2832 43.8629 41.3139 43.9151C41.3446 43.9674 41.3532 44.0296 41.338 44.0883C41.3228 44.1469 41.2849 44.197 41.2326 44.2277C40.9686 44.383 40.697 44.5334 40.4257 44.6753C40.3933 44.6926 40.3571 44.7017 40.3203 44.7018H40.32ZM41.8922 43.7785C41.8431 43.7784 41.7952 43.7625 41.7558 43.7331C41.7164 43.7037 41.6875 43.6624 41.6734 43.6153C41.6593 43.5681 41.6608 43.5177 41.6777 43.4715C41.6945 43.4253 41.7258 43.3858 41.7669 43.3588C42.0169 43.1953 42.2665 43.0231 42.5088 42.8472C42.5579 42.8138 42.6181 42.8009 42.6766 42.8111C42.7351 42.8213 42.7874 42.8539 42.8223 42.902C42.8572 42.95 42.872 43.0098 42.8636 43.0686C42.8552 43.1274 42.8243 43.1806 42.7773 43.217C42.5288 43.3974 42.273 43.5736 42.0169 43.7413C41.9799 43.7654 41.9367 43.7784 41.8926 43.7785H41.8922ZM43.3684 42.7071C43.3211 42.7072 43.2749 42.6926 43.2362 42.6652C43.1976 42.6379 43.1684 42.5992 43.1527 42.5545C43.137 42.5099 43.1356 42.4614 43.1486 42.4159C43.1617 42.3704 43.1886 42.3301 43.2256 42.3005C43.459 42.1133 43.691 41.9177 43.9141 41.7194C43.9367 41.6996 43.963 41.6843 43.9915 41.6746C44.02 41.6649 44.0501 41.6609 44.0801 41.6629C44.1102 41.6648 44.1395 41.6726 44.1665 41.6859C44.1935 41.6992 44.2177 41.7177 44.2375 41.7403C44.2574 41.7629 44.2726 41.7892 44.2823 41.8176C44.292 41.8461 44.296 41.8763 44.2941 41.9063C44.2922 41.9363 44.2843 41.9657 44.2711 41.9927C44.2578 42.0197 44.2393 42.0438 44.2167 42.0637C43.9871 42.2665 43.7495 42.4668 43.5103 42.6586C43.4699 42.6902 43.4201 42.7073 43.3688 42.7071H43.3684ZM44.7358 41.4984C44.6904 41.4983 44.6461 41.4848 44.6084 41.4594C44.5708 41.434 44.5415 41.398 44.5244 41.3559C44.5073 41.3138 44.5031 41.2676 44.5124 41.2232C44.5217 41.1787 44.544 41.138 44.5765 41.1063C44.7909 40.8973 45.0033 40.6804 45.2075 40.4615C45.2496 40.4216 45.3053 40.3993 45.3633 40.399C45.4212 40.3987 45.4771 40.4205 45.5196 40.4599C45.5621 40.4994 45.588 40.5535 45.5921 40.6113C45.5961 40.6692 45.578 40.7264 45.5414 40.7713C45.3325 40.9958 45.1149 41.2189 44.8952 41.4316C44.8529 41.4741 44.7955 41.4981 44.7355 41.4984H44.7358ZM45.981 40.163C45.9375 40.1629 45.895 40.1504 45.8583 40.1269C45.8217 40.1035 45.7925 40.07 45.7742 40.0305C45.7559 39.9911 45.7493 39.9472 45.755 39.9041C45.7608 39.8609 45.7788 39.8204 45.8068 39.7871C46.0007 39.5585 46.191 39.322 46.3732 39.0844C46.4108 39.0386 46.4648 39.0092 46.5237 39.0024C46.5827 38.9956 46.6419 39.012 46.689 39.0481C46.7361 39.0843 46.7672 39.1373 46.7759 39.1959C46.7847 39.2546 46.7702 39.3144 46.7357 39.3626C46.5491 39.606 46.3539 39.848 46.1556 40.0825C46.1342 40.1078 46.1075 40.1281 46.0774 40.142C46.0473 40.1559 46.0145 40.1631 45.9814 40.163H45.981ZM47.0927 38.714C47.051 38.7139 47.0102 38.7025 46.9746 38.6809C46.939 38.6593 46.91 38.6283 46.8907 38.5915C46.8714 38.5546 46.8625 38.5131 46.865 38.4716C46.8676 38.43 46.8814 38.3899 46.905 38.3556C47.0772 38.1088 47.2431 37.8551 47.4015 37.6014C47.4167 37.5747 47.4371 37.5513 47.4616 37.5327C47.486 37.5141 47.5139 37.5006 47.5437 37.4931C47.5735 37.4855 47.6045 37.4841 47.6349 37.4888C47.6652 37.4935 47.6943 37.5043 47.7204 37.5205C47.7465 37.5368 47.769 37.5581 47.7866 37.5832C47.8043 37.6084 47.8167 37.6368 47.8231 37.6669C47.8294 37.6969 47.8297 37.728 47.8238 37.7581C47.8179 37.7883 47.806 37.8169 47.7888 37.8424C47.6266 38.1023 47.4559 38.3622 47.2806 38.6149C47.2597 38.6453 47.2317 38.6703 47.199 38.6875C47.1663 38.7048 47.13 38.7139 47.093 38.714H47.0927ZM48.0597 37.1648C48.0199 37.1647 47.9809 37.1542 47.9465 37.1343C47.912 37.1145 47.8833 37.086 47.8632 37.0517C47.8431 37.0175 47.8323 36.9785 47.8318 36.9388C47.8313 36.899 47.8411 36.8598 47.8604 36.8251C48.007 36.5627 48.1485 36.2939 48.2814 36.026C48.2941 35.9982 48.3123 35.9732 48.3349 35.9525C48.3575 35.9318 48.384 35.9159 48.4129 35.9056C48.4418 35.8954 48.4724 35.8911 48.503 35.8929C48.5336 35.8948 48.5634 35.9027 48.5909 35.9163C48.6183 35.93 48.6427 35.9489 48.6627 35.9722C48.6826 35.9954 48.6977 36.0224 48.707 36.0516C48.7164 36.0808 48.7197 36.1115 48.7169 36.142C48.7141 36.1725 48.7052 36.2021 48.6907 36.2291C48.553 36.5045 48.4095 36.78 48.2594 37.0475C48.2395 37.0828 48.2106 37.1123 48.1755 37.1327C48.1405 37.1532 48.1006 37.1639 48.06 37.1638L48.0597 37.1648ZM48.8725 35.5272C48.8411 35.5272 48.81 35.5206 48.7813 35.5079C48.7258 35.4837 48.6822 35.4384 48.6601 35.3821C48.6379 35.3257 48.6391 35.2629 48.6632 35.2074C48.7837 34.932 48.8983 34.6507 49.0047 34.3708C49.0275 34.3159 49.0707 34.2721 49.1253 34.2486C49.1798 34.225 49.2414 34.2237 49.2969 34.2447C49.3525 34.2658 49.3976 34.3077 49.4228 34.3615C49.448 34.4153 49.4513 34.4768 49.4319 34.533C49.3228 34.8201 49.2051 35.1082 49.0818 35.3902C49.0642 35.431 49.035 35.4658 48.9979 35.4902C48.9608 35.5147 48.9173 35.5278 48.8728 35.5279L48.8725 35.5272ZM49.5225 33.8172C49.4991 33.8172 49.4758 33.8133 49.4536 33.8059C49.4251 33.7966 49.3986 33.7818 49.3758 33.7624C49.353 33.7429 49.3342 33.7191 49.3206 33.6924C49.307 33.6656 49.2988 33.6365 49.2964 33.6066C49.2941 33.5767 49.2977 33.5466 49.307 33.5181C49.3996 33.2334 49.4863 32.9425 49.5648 32.654C49.5853 32.6014 49.6245 32.5583 49.6749 32.533C49.7253 32.5076 49.7833 32.5018 49.8377 32.5167C49.8921 32.5316 49.9391 32.5661 49.9695 32.6136C50 32.6611 50.0118 32.7181 50.0027 32.7738C49.9225 33.0695 49.8337 33.3673 49.7387 33.6596C49.7236 33.705 49.6947 33.7446 49.656 33.7727C49.6173 33.8008 49.5707 33.816 49.5228 33.8162L49.5225 33.8172ZM50.0017 32.056C49.985 32.056 49.9684 32.0542 49.9521 32.0505C49.8933 32.037 49.8422 32.0008 49.8099 31.9498C49.7777 31.8988 49.7669 31.8371 49.78 31.7782C49.8444 31.4862 49.9025 31.1885 49.9521 30.8931C49.9622 30.8334 49.9957 30.7801 50.0451 30.7451C50.0945 30.71 50.1558 30.696 50.2155 30.7061C50.2752 30.7163 50.3284 30.7497 50.3635 30.7991C50.3985 30.8485 50.4125 30.9098 50.4024 30.9695C50.3508 31.2721 50.2915 31.5775 50.2254 31.8766C50.214 31.9272 50.1858 31.9724 50.1453 32.0048C50.1048 32.0372 50.0546 32.0549 50.0027 32.055L50.0017 32.056ZM50.3074 30.2562C50.2982 30.2569 50.289 30.2569 50.2798 30.2562C50.25 30.2527 50.2212 30.2433 50.195 30.2286C50.1689 30.2139 50.1459 30.1942 50.1273 30.1706C50.1088 30.147 50.095 30.12 50.087 30.091C50.0789 30.0621 50.0766 30.0319 50.0802 30.0021C50.1146 29.705 50.1449 29.4031 50.1666 29.1046C50.1687 29.0747 50.1767 29.0455 50.1901 29.0187C50.2035 28.9919 50.2221 28.968 50.2447 28.9483C50.2674 28.9287 50.2937 28.9137 50.3221 28.9042C50.3506 28.8948 50.3806 28.891 50.4105 28.8931C50.4404 28.8952 50.4696 28.9032 50.4964 28.9166C50.5232 28.93 50.5471 28.9486 50.5668 28.9712C50.5864 28.9939 50.6014 29.0202 50.6109 29.0486C50.6204 29.0771 50.6242 29.1071 50.622 29.137C50.6 29.443 50.5704 29.7525 50.5339 30.0569C50.5266 30.1117 50.4996 30.162 50.458 30.1985C50.4164 30.2349 50.363 30.2551 50.3077 30.2552L50.3074 30.2562Z"/><path fill="#fff" d="M30.6208 46.8234H30.6091C30.4555 46.8155 30.2992 46.8059 30.1477 46.7949C30.1174 46.7931 30.0877 46.7854 30.0604 46.7721C30.0331 46.7587 30.0088 46.7401 29.9888 46.7172C29.9688 46.6944 29.9535 46.6678 29.9439 46.639C29.9343 46.6101 29.9305 46.5797 29.9328 46.5494C29.9351 46.5191 29.9434 46.4896 29.9572 46.4626C29.971 46.4355 29.9901 46.4115 30.0133 46.3919C30.0366 46.3723 30.0634 46.3576 30.0924 46.3485C30.1214 46.3394 30.1519 46.3362 30.1822 46.3391C30.3312 46.3501 30.4827 46.3597 30.6328 46.3669C30.6922 46.3702 30.7479 46.3964 30.7883 46.4401C30.8286 46.4838 30.8503 46.5414 30.8488 46.6009C30.8474 46.6603 30.8228 46.7168 30.7803 46.7584C30.7379 46.8 30.6809 46.8235 30.6215 46.8238L30.6208 46.8234Z"/></g><g opacity=".56"><path fill="#fff" d="M12.7039 27.9772C12.6739 27.9773 12.6442 27.9714 12.6165 27.9599C12.5887 27.9485 12.5635 27.9317 12.5423 27.9105C12.5211 27.8893 12.5042 27.8641 12.4927 27.8364C12.4812 27.8087 12.4753 27.779 12.4753 27.749C12.4753 27.5972 12.4774 27.4415 12.4808 27.2866C12.4831 27.2263 12.5088 27.1693 12.5524 27.1276C12.5961 27.086 12.6542 27.063 12.7146 27.0635C12.7752 27.065 12.8327 27.0904 12.8745 27.1343C12.9163 27.1781 12.9391 27.2367 12.9377 27.2973C12.9342 27.4488 12.9322 27.6006 12.9322 27.749C12.9322 27.7789 12.9263 27.8086 12.9148 27.8363C12.9033 27.864 12.8865 27.8892 12.8653 27.9104C12.8441 27.9316 12.819 27.9484 12.7913 27.9598C12.7636 27.9713 12.7339 27.9772 12.7039 27.9772Z"/><path fill="#fff" d="M12.7535 26.6218H12.737C12.6765 26.6175 12.6203 26.5894 12.5806 26.5436C12.5409 26.4979 12.521 26.4382 12.5253 26.3778C12.5469 26.0758 12.5759 25.7712 12.6113 25.472C12.6202 25.4133 12.6516 25.3604 12.6988 25.3244C12.7461 25.2885 12.8054 25.2723 12.8644 25.2793C12.9233 25.2863 12.9772 25.316 13.0147 25.3621C13.0521 25.4081 13.0702 25.4669 13.0651 25.5261C13.0306 25.818 13.0021 26.1154 12.9811 26.4101C12.9768 26.4676 12.951 26.5213 12.9088 26.5606C12.8666 26.5999 12.8111 26.6217 12.7535 26.6218ZM12.9656 24.8368C12.9529 24.8368 12.9402 24.8358 12.9277 24.8337C12.868 24.8236 12.8147 24.7903 12.7796 24.741C12.7444 24.6917 12.7302 24.6305 12.7401 24.5707C12.79 24.2736 12.8475 23.9727 12.9122 23.6756C12.9251 23.6163 12.961 23.5645 13.0121 23.5316C13.0631 23.4988 13.1252 23.4875 13.1845 23.5004C13.2439 23.5133 13.2957 23.5492 13.3285 23.6003C13.3614 23.6514 13.3726 23.7134 13.3597 23.7727C13.2971 24.0612 13.2406 24.3549 13.1921 24.6447C13.1834 24.6987 13.1556 24.7478 13.1138 24.783C13.0719 24.8183 13.0189 24.8374 12.9642 24.8368H12.9656ZM13.347 23.0811C13.327 23.081 13.3071 23.0784 13.2878 23.0732C13.2293 23.0575 13.1794 23.0191 13.1491 22.9667C13.1189 22.9142 13.1107 22.8518 13.1263 22.7933C13.2048 22.501 13.2912 22.2081 13.3828 21.9203C13.4036 21.8657 13.4444 21.8212 13.497 21.7959C13.5495 21.7705 13.6097 21.7662 13.6654 21.7838C13.721 21.8014 13.7678 21.8396 13.7961 21.8905C13.8245 21.9415 13.8323 22.0014 13.818 22.058C13.7285 22.3378 13.6458 22.6246 13.5677 22.91C13.5547 22.959 13.5259 23.0023 13.4857 23.0331C13.4456 23.0639 13.3963 23.0806 13.3456 23.0804L13.347 23.0811ZM13.8958 21.367C13.8685 21.3671 13.8414 21.3622 13.8159 21.3526C13.7878 21.3421 13.762 21.3262 13.74 21.3058C13.718 21.2853 13.7003 21.2607 13.6878 21.2334C13.6754 21.2061 13.6685 21.1766 13.6675 21.1466C13.6665 21.1166 13.6714 21.0867 13.682 21.0586C13.788 20.7746 13.9023 20.4898 14.0218 20.2124C14.0486 20.1616 14.0936 20.1228 14.1478 20.1037C14.202 20.0846 14.2614 20.0866 14.3141 20.1093C14.3669 20.132 14.4092 20.1737 14.4326 20.2262C14.456 20.2786 14.4588 20.338 14.4404 20.3924C14.324 20.663 14.2125 20.9408 14.1085 21.2186C14.0921 21.2621 14.0628 21.2996 14.0245 21.326C13.9863 21.3524 13.9409 21.3665 13.8944 21.3663L13.8958 21.367ZM14.607 19.7125C14.5682 19.7128 14.5299 19.7031 14.4958 19.6844C14.4617 19.6657 14.433 19.6387 14.4123 19.6058C14.3916 19.5729 14.3797 19.5353 14.3776 19.4965C14.3755 19.4577 14.3834 19.419 14.4005 19.3841C14.5333 19.1114 14.6759 18.8391 14.8198 18.5747C14.8489 18.5216 14.898 18.4823 14.9562 18.4654C15.0143 18.4485 15.0768 18.4553 15.1299 18.4845C15.183 18.5137 15.2224 18.5628 15.2393 18.6209C15.2562 18.6791 15.2493 18.7416 15.2201 18.7947C15.0783 19.0529 14.9406 19.3183 14.8112 19.5844C14.7922 19.6227 14.7629 19.6549 14.7265 19.6774C14.6902 19.6999 14.6484 19.7118 14.6056 19.7118L14.607 19.7125ZM15.4732 18.1337C15.4326 18.1337 15.3927 18.1229 15.3577 18.1024C15.3227 18.0818 15.2938 18.0523 15.274 18.0169C15.2541 17.9815 15.2441 17.9414 15.245 17.9008C15.2458 17.8602 15.2574 17.8206 15.2787 17.786C15.4363 17.5285 15.6026 17.2713 15.7727 17.0211C15.7895 16.9962 15.8111 16.9749 15.8362 16.9584C15.8613 16.9419 15.8894 16.9304 15.9189 16.9248C15.9484 16.9191 15.9788 16.9193 16.0082 16.9254C16.0376 16.9315 16.0656 16.9433 16.0904 16.9601C16.1153 16.977 16.1366 16.9986 16.1531 17.0237C16.1696 17.0488 16.1811 17.0769 16.1867 17.1064C16.1924 17.1359 16.1922 17.1662 16.1861 17.1956C16.18 17.2251 16.1682 17.253 16.1514 17.2779C15.9854 17.5223 15.8229 17.7733 15.6694 18.0249C15.6489 18.0584 15.62 18.0861 15.5856 18.1051C15.5512 18.1242 15.5125 18.134 15.4732 18.1337ZM16.485 16.6462C16.4425 16.6462 16.4009 16.6344 16.3648 16.6121C16.3287 16.5898 16.2995 16.5578 16.2806 16.5198C16.2616 16.4819 16.2536 16.4393 16.2575 16.3971C16.2614 16.3548 16.277 16.3145 16.3025 16.2806C16.4836 16.0396 16.6736 15.7986 16.8667 15.5662C16.8859 15.5431 16.9094 15.524 16.9359 15.5101C16.9624 15.4961 16.9915 15.4874 17.0213 15.4846C17.0512 15.4819 17.0813 15.485 17.1099 15.4938C17.1386 15.5027 17.1652 15.5171 17.1883 15.5363C17.2114 15.5554 17.2304 15.5789 17.2444 15.6054C17.2584 15.632 17.2671 15.661 17.2699 15.6908C17.2726 15.7207 17.2695 15.7508 17.2606 15.7794C17.2518 15.8081 17.2374 15.8347 17.2182 15.8578C17.0299 16.0854 16.8444 16.3198 16.6674 16.5549C16.646 16.5835 16.6182 16.6067 16.5862 16.6226C16.5542 16.6384 16.5189 16.6465 16.4832 16.6462H16.485ZM17.6327 15.2619C17.5885 15.2618 17.5452 15.2489 17.5081 15.2247C17.471 15.2005 17.4418 15.166 17.4239 15.1255C17.4061 15.085 17.4003 15.0402 17.4075 14.9965C17.4146 14.9528 17.4342 14.9121 17.464 14.8794C17.6675 14.6567 17.8792 14.4353 18.0933 14.2219C18.1367 14.1815 18.1941 14.1595 18.2534 14.1606C18.3127 14.1617 18.3692 14.1858 18.4111 14.2277C18.4529 14.2697 18.4768 14.3263 18.4777 14.3856C18.4786 14.4449 18.4565 14.5022 18.4159 14.5455C18.207 14.752 18.0001 14.9696 17.8018 15.1872C17.7802 15.211 17.7538 15.2299 17.7244 15.2428C17.6949 15.2557 17.6631 15.2622 17.631 15.2619H17.6327ZM18.9065 13.9926C18.8603 13.9926 18.8153 13.9787 18.7772 13.9526C18.7392 13.9265 18.7099 13.8895 18.6933 13.8464C18.6767 13.8033 18.6736 13.7563 18.6843 13.7114C18.695 13.6665 18.7191 13.6259 18.7533 13.595C18.9764 13.3925 19.2081 13.1925 19.4418 13.0001C19.4888 12.9629 19.5484 12.9456 19.608 12.9519C19.6675 12.9583 19.7222 12.9877 19.7602 13.0339C19.7983 13.0802 19.8167 13.1395 19.8115 13.1991C19.8063 13.2588 19.7779 13.314 19.7324 13.353C19.5045 13.5406 19.2783 13.7358 19.0604 13.9334C19.0178 13.9722 18.9621 13.9934 18.9044 13.9926H18.9065ZM20.2928 12.8503C20.2448 12.8504 20.198 12.8354 20.159 12.8074C20.12 12.7794 20.0908 12.7398 20.0756 12.6943C20.0604 12.6488 20.0599 12.5996 20.0741 12.5538C20.0884 12.5079 20.1167 12.4678 20.1551 12.4389C20.3961 12.2582 20.6461 12.0812 20.8963 11.9122C20.9212 11.8953 20.9491 11.8835 20.9784 11.8774C21.0078 11.8713 21.0381 11.871 21.0676 11.8767C21.0971 11.8823 21.1252 11.8936 21.1503 11.9101C21.1754 11.9266 21.197 11.9478 21.2139 11.9726C21.2308 11.9975 21.2426 12.0254 21.2487 12.0547C21.2548 12.0841 21.2551 12.1144 21.2495 12.1439C21.2439 12.1734 21.2325 12.2015 21.216 12.2266C21.1996 12.2517 21.1783 12.2733 21.1535 12.2902C20.9094 12.4555 20.6657 12.6283 20.4305 12.8045C20.3909 12.8345 20.3425 12.8506 20.2928 12.8503ZM21.7811 11.8447C21.7312 11.8448 21.6827 11.8286 21.6429 11.7985C21.6031 11.7684 21.5743 11.7262 21.5608 11.6781C21.5474 11.6301 21.55 11.579 21.5683 11.5326C21.5867 11.4862 21.6197 11.4471 21.6623 11.4213C21.9202 11.2643 22.1849 11.1115 22.4496 10.9676C22.5028 10.9386 22.5653 10.9319 22.6235 10.949C22.6816 10.9661 22.7305 11.0056 22.7595 11.0588C22.7885 11.112 22.7951 11.1745 22.778 11.2326C22.7609 11.2907 22.7214 11.3396 22.6682 11.3686C22.41 11.5094 22.1519 11.6585 21.8999 11.8117C21.8637 11.8335 21.8223 11.8449 21.7801 11.8447H21.7811ZM23.3568 10.9858C23.3051 10.9859 23.2549 10.9683 23.2144 10.9362C23.174 10.904 23.1456 10.859 23.1341 10.8086C23.1225 10.7582 23.1284 10.7054 23.1508 10.6588C23.1732 10.6122 23.2107 10.5745 23.2573 10.552C23.5286 10.4205 23.8081 10.2938 24.0835 10.1754C24.1389 10.1535 24.2006 10.1541 24.2556 10.1771C24.3105 10.2 24.3544 10.2435 24.3777 10.2983C24.4011 10.3531 24.4022 10.4148 24.3807 10.4704C24.3593 10.5259 24.317 10.5709 24.2629 10.5958C23.9923 10.7111 23.721 10.8347 23.4559 10.9631C23.425 10.978 23.3911 10.9858 23.3568 10.9858ZM38.212 10.3083C38.1846 10.3083 38.1574 10.3033 38.1318 10.2935C37.8564 10.1902 37.5731 10.0911 37.2928 10.0009C37.2352 9.98229 37.1873 9.94157 37.1596 9.88766C37.132 9.83375 37.1269 9.77107 37.1455 9.71341C37.1641 9.65576 37.2048 9.60784 37.2587 9.58021C37.3126 9.55257 37.3753 9.54749 37.433 9.56607C37.7201 9.65868 38.0092 9.75955 38.2936 9.86592C38.3436 9.88484 38.3853 9.92066 38.4117 9.96716C38.438 10.0137 38.4471 10.0679 38.4376 10.1205C38.4281 10.1731 38.4004 10.2206 38.3595 10.2549C38.3185 10.2893 38.2668 10.3081 38.2134 10.3083H38.212ZM25.0068 10.2818C24.9533 10.2817 24.9015 10.2628 24.8605 10.2284C24.8194 10.194 24.7918 10.1463 24.7823 10.0936C24.7728 10.0409 24.7822 9.98658 24.8087 9.94007C24.8352 9.89355 24.8771 9.85781 24.9273 9.83907C25.2103 9.73579 25.4998 9.63458 25.7879 9.543C25.8169 9.53243 25.8478 9.52782 25.8786 9.52948C25.9094 9.53114 25.9396 9.53902 25.9672 9.55264C25.9949 9.56627 26.0196 9.58536 26.0397 9.60876C26.0598 9.63217 26.075 9.6594 26.0843 9.68882C26.0936 9.71825 26.0968 9.74925 26.0938 9.77996C26.0908 9.81067 26.0816 9.84046 26.0668 9.86753C26.052 9.89459 26.0318 9.91838 26.0076 9.93745C25.9833 9.95652 25.9555 9.97048 25.9257 9.97849C25.6447 10.0677 25.3621 10.1647 25.0857 10.2673C25.0604 10.2769 25.0335 10.2818 25.0065 10.2818H25.0068ZM36.5007 9.75713C36.4806 9.75704 36.4606 9.75438 36.4411 9.74922C36.1564 9.67245 35.8659 9.60153 35.5781 9.53853C35.5187 9.52561 35.4669 9.48964 35.4341 9.43854C35.4013 9.38744 35.3901 9.32539 35.403 9.26605C35.4159 9.2067 35.4519 9.15491 35.503 9.12208C35.5541 9.08925 35.6161 9.07807 35.6755 9.09099C35.9709 9.15571 36.2683 9.22869 36.5599 9.30718C36.6124 9.32231 36.6578 9.3558 36.6877 9.40154C36.7177 9.44729 36.7302 9.50226 36.723 9.55645C36.7158 9.61065 36.6895 9.66047 36.6487 9.69685C36.6079 9.73324 36.5554 9.75378 36.5007 9.75472V9.75713ZM26.7199 9.73786C26.6645 9.73759 26.6112 9.71727 26.5697 9.68066C26.5282 9.64406 26.5014 9.59365 26.4943 9.5388C26.4872 9.48394 26.5001 9.42835 26.5309 9.38234C26.5616 9.33633 26.6079 9.30303 26.6613 9.28859C26.9533 9.21079 27.2511 9.13953 27.5464 9.07619C27.5758 9.0699 27.6062 9.06947 27.6357 9.07491C27.6653 9.08035 27.6935 9.09155 27.7187 9.10789C27.7439 9.12422 27.7657 9.14537 27.7827 9.17011C27.7998 9.19486 27.8118 9.22272 27.8181 9.2521C27.8243 9.28149 27.8248 9.31182 27.8193 9.34138C27.8139 9.37093 27.8027 9.39912 27.7864 9.42435C27.77 9.44957 27.7489 9.47133 27.7241 9.48838C27.6994 9.50543 27.6715 9.51744 27.6421 9.52373C27.354 9.58569 27.0634 9.65523 26.7784 9.73028C26.7592 9.73534 26.7394 9.73788 26.7195 9.73786H26.7199ZM34.7443 9.37259C34.7314 9.37258 34.7185 9.37154 34.7057 9.36949C34.4155 9.32027 34.1205 9.27758 33.8265 9.24212C33.7663 9.23486 33.7116 9.20402 33.6742 9.15637C33.6368 9.10872 33.6199 9.04818 33.6271 8.98805C33.6344 8.92793 33.6652 8.87315 33.7129 8.83577C33.7605 8.79839 33.8211 8.78147 33.8812 8.78873C34.1814 8.82487 34.4844 8.86859 34.7821 8.91886C34.8383 8.92871 34.8888 8.95923 34.9237 9.00441C34.9585 9.04959 34.9752 9.10616 34.9704 9.16302C34.9657 9.21988 34.9399 9.27291 34.898 9.31168C34.8562 9.35046 34.8013 9.37219 34.7443 9.37259ZM28.4787 9.3602C28.4211 9.36058 28.3655 9.33918 28.323 9.30027C28.2805 9.26137 28.2543 9.20784 28.2497 9.15043C28.245 9.09302 28.2622 9.03597 28.2979 8.99072C28.3335 8.94547 28.385 8.91538 28.4419 8.90646C28.7393 8.85723 29.0426 8.81489 29.3428 8.77978C29.3726 8.7763 29.4028 8.77871 29.4316 8.7869C29.4605 8.79508 29.4875 8.80887 29.511 8.82748C29.5345 8.84609 29.5541 8.86914 29.5688 8.89533C29.5834 8.92153 29.5927 8.95034 29.5962 8.98013C29.5997 9.00993 29.5972 9.04011 29.5891 9.06897C29.5809 9.09783 29.5671 9.12479 29.5485 9.14832C29.5299 9.17185 29.5068 9.19148 29.4806 9.2061C29.4544 9.22072 29.4256 9.23003 29.3958 9.23351C29.1025 9.26794 28.8068 9.30925 28.5162 9.3571C28.5031 9.35927 28.4899 9.36031 28.4766 9.3602H28.4787ZM32.9586 9.15743C32.953 9.15777 32.9473 9.15777 32.9417 9.15743C32.6484 9.13643 32.3496 9.123 32.0542 9.11405C31.9937 9.11328 31.9359 9.08849 31.8937 9.04513C31.8514 9.00178 31.8281 8.94342 31.8289 8.88288C31.8297 8.82235 31.8545 8.7646 31.8978 8.72234C31.9412 8.68009 31.9995 8.65679 32.0601 8.65756H32.0659C32.3682 8.66514 32.6742 8.68028 32.9748 8.70197C33.0346 8.70505 33.0908 8.73152 33.1313 8.77567C33.1718 8.81983 33.1933 8.87814 33.1912 8.93801C33.189 8.99788 33.1635 9.05451 33.1199 9.09569C33.0764 9.13687 33.0185 9.15929 32.9586 9.15812V9.15743ZM30.2623 9.15227C30.2025 9.15317 30.1448 9.13058 30.1015 9.08935C30.0582 9.04812 30.0328 8.99155 30.0308 8.93179C30.0287 8.87204 30.0502 8.81387 30.0906 8.7698C30.131 8.72573 30.1871 8.69928 30.2468 8.69612C30.5477 8.67546 30.8538 8.66169 31.1557 8.65515H31.1608C31.22 8.65674 31.2762 8.68118 31.3177 8.72334C31.3591 8.7655 31.3827 8.8221 31.3833 8.88125C31.3839 8.94039 31.3616 8.99748 31.321 9.0405C31.2804 9.08353 31.2247 9.10916 31.1657 9.11199C30.8706 9.11818 30.5722 9.13161 30.2782 9.15192L30.2623 9.15227Z"/><path fill="#fff" d="M39.4717 10.835C39.4386 10.835 39.4059 10.8277 39.376 10.8137C39.2407 10.7514 39.1006 10.6894 38.9628 10.6298C38.9342 10.6187 38.9082 10.6019 38.8862 10.5804C38.8642 10.5589 38.8468 10.5332 38.835 10.5049C38.8231 10.4765 38.8171 10.4461 38.8173 10.4154C38.8176 10.3847 38.8239 10.3543 38.8361 10.3261C38.8483 10.2979 38.8661 10.2725 38.8883 10.2513C38.9106 10.2301 38.9369 10.2136 38.9656 10.2029C38.9944 10.1921 39.0251 10.1872 39.0557 10.1885C39.0864 10.1898 39.1165 10.1973 39.1443 10.2105C39.2854 10.2715 39.4273 10.3352 39.566 10.3992C39.6131 10.4211 39.6514 10.4585 39.6744 10.505C39.6975 10.5516 39.704 10.6047 39.6928 10.6555C39.6817 10.7062 39.6535 10.7517 39.6131 10.7843C39.5726 10.817 39.5223 10.8348 39.4703 10.835H39.4717Z"/></g><path fill="#fff" d="M28.1107 14.0742H39.3106C39.4327 14.0741 39.5529 14.1052 39.6596 14.1645C39.7664 14.2238 39.8563 14.3093 39.9208 14.413C39.9853 14.5167 40.0223 14.6351 40.0283 14.7571C40.0343 14.8791 40.0091 15.0006 39.9551 15.1101L35.5964 23.9607C35.5209 24.1139 35.4857 24.2838 35.4941 24.4544C35.5026 24.625 35.5543 24.7906 35.6445 24.9356C35.7347 25.0806 35.8604 25.2002 36.0096 25.2832C36.1589 25.3662 36.3269 25.4097 36.4976 25.4097H38.8572C39.0113 25.4097 39.1624 25.4517 39.2943 25.5314C39.4262 25.611 39.5338 25.7252 39.6055 25.8615C39.6772 25.9979 39.7103 26.1513 39.7011 26.305C39.692 26.4588 39.641 26.6072 39.5536 26.7341L27.1733 44.7146C26.9261 45.074 26.3629 44.8698 26.4028 44.4357L27.711 30.1998C27.7196 30.1072 27.7087 30.0139 27.6791 29.9257C27.6495 29.8376 27.6019 29.7566 27.5392 29.6879C27.4765 29.6193 27.4003 29.5644 27.3152 29.5269C27.2301 29.4893 27.1382 29.4699 27.0452 29.47H24.7545C24.5525 29.47 24.3531 29.4237 24.1718 29.3345C23.9905 29.2454 23.8321 29.1158 23.7088 28.9557C23.5855 28.7956 23.5006 28.6094 23.4606 28.4113C23.4207 28.2133 23.4267 28.0087 23.4783 27.8134L26.8438 15.0516C26.9175 14.7717 27.0817 14.524 27.3109 14.3472C27.54 14.1704 27.8213 14.0744 28.1107 14.0742Z"/><path fill="#333435" d="M26.8301 44.5086C26.8172 44.5082 26.8049 44.5031 26.7956 44.4942C26.7932 44.4918 26.7898 44.488 26.7915 44.4704L28.0997 30.2349C28.1132 30.0883 28.0959 29.9406 28.049 29.801C28.0022 29.6615 27.9267 29.5333 27.8275 29.4246C27.7283 29.3159 27.6076 29.229 27.4729 29.1696C27.3383 29.1102 27.1927 29.0795 27.0456 29.0795H24.7549C24.6124 29.0797 24.4719 29.0471 24.344 28.9843C24.2162 28.9215 24.1045 28.8302 24.0176 28.7174C23.9306 28.6045 23.8708 28.4733 23.8427 28.3336C23.8145 28.194 23.8188 28.0498 23.8553 27.9121L27.2211 15.1503C27.2731 14.9536 27.3887 14.7797 27.5498 14.6555C27.711 14.5313 27.9087 14.464 28.1121 14.4639H39.312C39.3679 14.4638 39.4228 14.4781 39.4717 14.5052C39.5205 14.5323 39.5617 14.5715 39.5912 14.6189C39.6207 14.6664 39.6377 14.7206 39.6404 14.7764C39.6432 14.8322 39.6317 14.8878 39.607 14.9379L35.2466 23.7885C35.142 24.0012 35.0932 24.237 35.105 24.4736C35.1167 24.7103 35.1886 24.9401 35.3138 25.1413C35.439 25.3425 35.6133 25.5085 35.8205 25.6237C36.0276 25.7388 36.2606 25.7993 36.4976 25.7994H38.8572C38.9403 25.7993 39.0218 25.8219 39.0929 25.8647C39.164 25.9076 39.2221 25.9692 39.2607 26.0427C39.2994 26.1162 39.3172 26.1989 39.3122 26.2818C39.3072 26.3647 39.2796 26.4447 39.2324 26.513L26.8524 44.4935C26.8414 44.5086 26.8366 44.5086 26.8301 44.5086Z"/><path fill="#74767B" d="M27.6514 42.209C27.6238 42.209 27.5964 42.2033 27.5711 42.1922C27.5458 42.1811 27.5231 42.1648 27.5045 42.1443C27.4859 42.1239 27.4718 42.0998 27.463 42.0736C27.4543 42.0473 27.4511 42.0196 27.4538 41.9921L27.787 38.3598C27.7934 38.3208 27.8143 38.2857 27.8455 38.2615C27.8767 38.2373 27.916 38.2259 27.9553 38.2295C27.9946 38.2331 28.0311 38.2516 28.0574 38.281C28.0836 38.3105 28.0978 38.3489 28.0969 38.3883L27.8029 41.59L33.3906 33.4747C33.4018 33.457 33.4165 33.4417 33.4338 33.4298C33.451 33.4179 33.4705 33.4096 33.4911 33.4054C33.5116 33.4012 33.5328 33.4012 33.5533 33.4053C33.5739 33.4095 33.5934 33.4178 33.6107 33.4297C33.6279 33.4416 33.6427 33.4568 33.6539 33.4745C33.6652 33.4922 33.6727 33.512 33.6762 33.5327C33.6796 33.5534 33.6788 33.5745 33.6739 33.5949C33.6689 33.6153 33.6599 33.6345 33.6474 33.6513L27.8146 42.1225C27.7964 42.1491 27.772 42.1708 27.7436 42.1858C27.7152 42.2009 27.6836 42.2088 27.6514 42.209Z"/><path fill="#74767B" d="M25.9653 23.119C25.9518 23.1189 25.9384 23.1172 25.9254 23.1138C25.9056 23.1086 25.887 23.0996 25.8707 23.0872C25.8544 23.0748 25.8408 23.0593 25.8305 23.0416C25.8202 23.0239 25.8135 23.0044 25.8107 22.9841C25.808 22.9638 25.8093 22.9432 25.8145 22.9234L27.8226 15.3094C27.8394 15.2458 27.8768 15.1895 27.9289 15.1493C27.981 15.1092 28.0449 15.0874 28.1108 15.0873H30.1305C30.1685 15.0917 30.2036 15.1099 30.2291 15.1385C30.2545 15.1671 30.2686 15.204 30.2686 15.2423C30.2686 15.2805 30.2545 15.3174 30.2291 15.346C30.2036 15.3746 30.1685 15.3928 30.1305 15.3972H28.1214L26.1158 23.0012C26.1073 23.0348 26.088 23.0646 26.0607 23.0859C26.0335 23.1072 25.9999 23.1189 25.9653 23.119Z"/><path fill="#333435" d="M50.3438 62.411H45.9768L46.8963 39.6577H49.5392L50.3438 62.411Z"/><path fill="#333435" d="M51.263 62.7686C51.263 62.8013 51.2234 62.8282 51.1852 62.8282L45.3328 62.8705C45.202 62.8705 45.0574 62.7673 45.0574 62.6382V62.3483C45.0574 62.2843 45.119 62.2223 45.1655 62.1762C45.2189 62.1305 45.2873 62.106 45.3576 62.1073L51.1794 62.2068C51.2162 62.2068 51.2627 62.2326 51.2627 62.2643L51.263 62.7686Z"/><path fill="#333435" d="M62.5958 31.9014L39.388 32.1886C39.317 32.1939 39.2483 32.2167 39.1883 32.2551C39.1282 32.2934 39.0785 32.346 39.0438 32.4082L32.7173 44.888C32.656 45.0096 32.71 45.1087 32.8384 45.1094L56.0124 45.2471C56.0867 45.2431 56.1588 45.2203 56.2218 45.1808C56.2849 45.1413 56.3369 45.0864 56.3729 45.0213L62.7342 32.1211C62.7954 31.9989 62.7331 31.9001 62.5958 31.9014Z"/><path fill="#5C5E61" d="M56.0139 45.4289H56.0114L32.8374 45.2912C32.7817 45.2932 32.7264 45.2807 32.6769 45.2549C32.6275 45.2291 32.5856 45.1908 32.5555 45.1438C32.4966 45.0478 32.497 44.9252 32.5555 44.8078L38.883 32.3263C38.9739 32.1476 39.1894 32.0106 39.3846 32.0082L62.5924 31.7207C62.7187 31.7207 62.8306 31.7723 62.8905 31.8677C62.9202 31.9182 62.9361 31.9756 62.9369 32.0341C62.9376 32.0927 62.923 32.1504 62.8946 32.2016L56.5333 45.1015C56.4827 45.1965 56.4081 45.2766 56.317 45.334C56.2259 45.3915 56.1214 45.4241 56.0139 45.4289ZM32.8991 44.9287L56.0135 45.0664C56.0538 45.0621 56.0925 45.0486 56.1267 45.0269C56.1609 45.0051 56.1895 44.9758 56.2104 44.9411L62.5521 32.0808L39.3898 32.3679C39.3521 32.3731 39.316 32.3867 39.2842 32.4075C39.2523 32.4283 39.2255 32.456 39.2056 32.4884L32.8991 44.9287Z"/><path fill="#74767B" d="M46.0093 32.9773L39.6945 33.0462C39.6234 33.0514 39.5547 33.0742 39.4947 33.1125C39.4346 33.1509 39.3849 33.2035 39.3502 33.2658L37.8964 36.1352C37.8355 36.2554 37.8906 36.3525 38.0193 36.3514L44.3317 36.3105C44.4036 36.3054 44.4731 36.2826 44.5339 36.2439C44.5948 36.2053 44.645 36.152 44.6801 36.0891L46.1363 33.1918C46.1986 33.0727 46.1415 32.9759 46.0093 32.9773Z"/><path fill="#74767B" d="M53.603 32.8922L47.1532 32.9645C47.0813 32.9697 47.0118 32.9927 46.9509 33.0314C46.8901 33.0701 46.8397 33.1233 46.8045 33.1862L45.3483 36.0863C45.287 36.2078 45.3445 36.3056 45.476 36.3046L51.9233 36.2629C51.9963 36.2581 52.0668 36.2351 52.1286 36.196C52.1903 36.1569 52.2413 36.103 52.2769 36.0391L53.7355 33.1129C53.7965 32.9886 53.7369 32.8908 53.603 32.8922Z"/><path fill="#74767B" d="M61.3595 32.8058L54.7704 32.8791C54.6974 32.8843 54.6268 32.9075 54.565 32.9466C54.5033 32.9858 54.4522 33.0398 54.4164 33.1036L52.9578 36.0343C52.8965 36.1572 52.9578 36.256 53.0904 36.2553L59.6775 36.2123C59.7515 36.2078 59.8232 36.1847 59.886 36.1452C59.9487 36.1056 60.0005 36.0509 60.0365 35.9861L61.4972 33.0254C61.5582 32.9032 61.4965 32.8041 61.3595 32.8058Z"/><path fill="#74767B" d="M44.0238 36.928L37.7121 36.9625C37.583 36.9625 37.4291 37.0613 37.3678 37.1818L35.9071 40.0646C35.8458 40.1854 35.9009 40.2832 36.0297 40.2832L42.3386 40.2774C42.4701 40.2774 42.6261 40.1782 42.6874 40.0564L44.1501 37.146C44.2118 37.0251 44.155 36.9274 44.0238 36.928Z"/><path fill="#74767B" d="M51.6132 36.8853L45.1662 36.9197C45.0942 36.9247 45.0245 36.9475 44.9636 36.9862C44.9027 37.025 44.8525 37.0783 44.8175 37.1415L43.354 40.0549C43.2927 40.1768 43.3495 40.276 43.4814 40.2756L49.926 40.2698C49.999 40.2652 50.0697 40.2424 50.1315 40.2033C50.1934 40.1643 50.2444 40.1103 50.2799 40.0463L51.7454 37.1046C51.8067 36.9834 51.7475 36.8843 51.6132 36.8853Z"/><path fill="#74767B" d="M59.3666 36.8416L52.7798 36.8785C52.7068 36.8833 52.6361 36.9063 52.5742 36.9455C52.5123 36.9846 52.4613 37.0386 52.4256 37.1026L50.9601 40.0474C50.8984 40.1706 50.9576 40.2708 51.0919 40.2705L57.6766 40.2646C57.7507 40.2602 57.8224 40.2373 57.8853 40.1978C57.9481 40.1583 57.9999 40.1036 58.036 40.0388L59.5036 37.065C59.5652 36.9394 59.5043 36.8406 59.3666 36.8416Z"/><path fill="#74767B" d="M42.0282 40.8984H35.7196C35.5908 40.8984 35.4366 40.9965 35.3753 41.1173L33.9081 44.0136C33.8465 44.1351 33.9009 44.2339 34.0296 44.2346L40.3355 44.2646C40.4666 44.2646 40.6229 44.1665 40.6845 44.0436L42.1545 41.1194C42.2162 40.9961 42.1594 40.8984 42.0282 40.8984Z"/><path fill="#74767B" d="M49.6143 40.8984H43.1701C43.0979 40.903 43.0281 40.9258 42.9671 40.9644C42.906 41.0031 42.8557 41.0565 42.8206 41.1197L41.3506 44.046C41.289 44.1685 41.3455 44.2687 41.477 44.2694L47.9185 44.2997C47.9916 44.2956 48.0625 44.2729 48.1245 44.2339C48.1866 44.1949 48.2377 44.1408 48.273 44.0766L49.7455 41.1208C49.8071 40.9968 49.7482 40.8984 49.6143 40.8984Z"/><path fill="#74767B" d="M57.3647 40.8984H50.7807C50.7076 40.9028 50.6368 40.9256 50.5748 40.9647C50.5128 41.0037 50.4617 41.0578 50.4261 41.1218L48.8425 44.3052L55.6675 44.3376C55.7417 44.3336 55.8137 44.3108 55.8767 44.2713C55.9396 44.2317 55.9914 44.1768 56.0273 44.1117L57.5021 41.1239C57.5627 40.9979 57.5017 40.8984 57.3647 40.8984Z"/><path fill="#74767B" d="M55.8626 44.7844L51.3752 44.7607C51.3657 44.7598 51.3569 44.7554 51.3505 44.7483C51.3441 44.7413 51.3406 44.7321 51.3406 44.7226C51.3406 44.7131 51.3441 44.704 51.3505 44.6969C51.3569 44.6899 51.3657 44.6855 51.3752 44.6846L55.8626 44.7083C55.9759 44.7083 56.1005 44.5796 56.1604 44.4584L58.5059 39.7052C58.5104 39.6962 58.5183 39.6893 58.5278 39.6861C58.5373 39.6829 58.5478 39.6835 58.5568 39.688C58.5613 39.6902 58.5653 39.6932 58.5686 39.697C58.5719 39.7007 58.5744 39.7051 58.576 39.7099C58.5776 39.7146 58.5783 39.7196 58.5779 39.7246C58.5776 39.7296 58.5763 39.7344 58.574 39.7389L56.2289 44.4918C56.159 44.6329 56.0148 44.7844 55.8626 44.7844Z"/><path fill="#74767B" d="M37.329 36.656C37.323 36.6562 37.3171 36.6548 37.3118 36.6519C37.3073 36.6497 37.3033 36.6467 37.3 36.6429C37.2967 36.6391 37.2942 36.6347 37.2927 36.63C37.2911 36.6252 37.2905 36.6202 37.2909 36.6152C37.2913 36.6103 37.2927 36.6054 37.295 36.601L39.2993 32.6464C39.3681 32.5132 39.5544 32.4505 39.7003 32.4488L44.6353 32.39C44.6448 32.3909 44.6536 32.3953 44.66 32.4023C44.6664 32.4093 44.6699 32.4185 44.6699 32.428C44.6699 32.4375 44.6664 32.4467 44.66 32.4537C44.6536 32.4607 44.6448 32.4651 44.6353 32.466L39.7003 32.5249C39.5757 32.5249 39.4163 32.5817 39.366 32.6809L37.3617 36.6354C37.3587 36.6415 37.354 36.6466 37.3482 36.6502C37.3425 36.6538 37.3358 36.6559 37.329 36.656Z"/><path fill="#333435" d="M29.0078 62.6612H25.7897L26.4672 56.394H28.415L29.0078 62.6612Z"/><path fill="#333435" d="M29.6857 62.925C29.6857 62.9491 29.6564 62.9687 29.6282 62.9687L25.315 63C25.2186 63 25.1122 62.9239 25.1122 62.8279V62.6144C25.1122 62.5669 25.1573 62.5215 25.1917 62.4877C25.2309 62.4537 25.2813 62.4354 25.3332 62.4364L29.6241 62.5094C29.6513 62.5094 29.6857 62.5287 29.6857 62.5518V62.925Z"/><path fill="#333435" d="M40.6291 47.6855L20.5338 47.9347C20.4725 47.9396 20.4134 47.9595 20.3616 47.9926C20.3099 48.0258 20.2671 48.0712 20.237 48.1248L14.7574 58.9305C14.7041 59.0358 14.7509 59.1215 14.8607 59.1222L34.9267 59.2424C34.9911 59.2391 35.0536 59.2194 35.1082 59.1851C35.1629 59.1509 35.2079 59.1033 35.239 59.0468L40.7471 47.8766C40.8015 47.7698 40.7478 47.6841 40.6291 47.6855Z"/><path fill="#5C5E61" d="M34.9299 59.3987H34.9275L14.8615 59.2782C14.8132 59.2799 14.7653 59.2691 14.7224 59.2468C14.6796 59.2245 14.6433 59.1914 14.617 59.1508C14.5919 59.1065 14.5787 59.0564 14.5787 59.0054C14.5787 58.9544 14.5919 58.9043 14.617 58.8599L20.0963 48.0539C20.1394 47.975 20.2019 47.9083 20.2778 47.8602C20.3537 47.812 20.4407 47.7839 20.5304 47.7785L40.626 47.5296C40.6763 47.5273 40.7264 47.5378 40.7715 47.56C40.8167 47.5823 40.8554 47.6156 40.8842 47.657C40.9099 47.7006 40.9238 47.7502 40.9245 47.8009C40.9252 47.8515 40.9126 47.9015 40.888 47.9458L35.3798 59.1161C35.336 59.1983 35.2714 59.2677 35.1924 59.3172C35.1135 59.3668 35.023 59.3949 34.9299 59.3987ZM14.9148 58.9656L34.9292 59.0865C34.9643 59.083 34.9982 59.0714 35.0281 59.0526C35.0579 59.0337 35.083 59.0082 35.1013 58.978L40.5923 47.8422L20.5363 48.0907C20.5037 48.0951 20.4726 48.1066 20.445 48.1245C20.4174 48.1423 20.3942 48.1661 20.3769 48.194L14.9148 58.9656Z"/><path fill="#74767B" d="M26.2675 48.6171L20.7996 48.6787C20.7382 48.6834 20.679 48.7033 20.6271 48.7364C20.5752 48.7696 20.5323 48.815 20.5022 48.8687L19.2432 51.3536C19.1905 51.4569 19.2384 51.5416 19.3499 51.5409L24.8158 51.5065C24.878 51.5021 24.9381 51.4823 24.9907 51.4488C25.0433 51.4153 25.0867 51.3692 25.117 51.3147L26.378 48.8061C26.4307 48.6997 26.3811 48.6157 26.2675 48.6171Z"/><path fill="#74767B" d="M32.8419 48.5434L27.2573 48.6057C27.195 48.6104 27.1348 48.6304 27.0822 48.664C27.0295 48.6976 26.9859 48.7437 26.9554 48.7982L25.6944 51.3089C25.6413 51.4142 25.6909 51.4989 25.8049 51.4982L31.3878 51.4621C31.4509 51.4579 31.512 51.438 31.5655 51.4041C31.6189 51.3703 31.6631 51.3236 31.6938 51.2682L32.9569 48.7328C33.0096 48.6271 32.9583 48.541 32.8419 48.5434Z"/><path fill="#74767B" d="M39.5585 48.4683L33.8531 48.532C33.7899 48.5364 33.7287 48.5565 33.6752 48.5905C33.6218 48.6245 33.5776 48.6712 33.5467 48.7265L32.2836 51.2641C32.2306 51.3705 32.2836 51.4562 32.3986 51.4555L38.1019 51.4183C38.1659 51.4142 38.2277 51.3941 38.2818 51.3599C38.336 51.3257 38.3807 51.2784 38.4118 51.2224L39.6766 48.6597C39.7306 48.5527 39.6773 48.467 39.5585 48.4683Z"/><path fill="#74767B" d="M24.5476 52.038L19.0821 52.0686C19.0207 52.0731 18.9613 52.0929 18.9094 52.126C18.8574 52.1592 18.8146 52.2048 18.7847 52.2587L17.5199 54.7549C17.4668 54.8582 17.5144 54.9443 17.6259 54.9439L23.089 54.9391C23.1513 54.935 23.2116 54.9153 23.2644 54.8819C23.3171 54.8485 23.3606 54.8023 23.3909 54.7477L24.6574 52.2273C24.7105 52.1213 24.6612 52.0373 24.5476 52.038Z"/><path fill="#74767B" d="M31.1192 52.0008L25.5366 52.0322C25.4743 52.0365 25.414 52.0563 25.3613 52.0899C25.3086 52.1234 25.265 52.1696 25.2347 52.2243L23.9675 54.747C23.9145 54.8527 23.9637 54.9384 24.0777 54.9381L29.6581 54.9333C29.7213 54.9291 29.7825 54.9093 29.836 54.8754C29.8896 54.8415 29.9337 54.7948 29.9645 54.7394L31.2335 52.1919C31.2865 52.0869 31.2352 52.0001 31.1192 52.0008Z"/><path fill="#74767B" d="M37.833 51.963L32.1296 51.995C32.0663 51.9991 32.0051 52.019 31.9515 52.0529C31.8979 52.0868 31.8537 52.1337 31.8229 52.1891L30.554 54.7377C30.5006 54.8448 30.5519 54.9312 30.6682 54.9312L36.3696 54.926C36.4335 54.9221 36.4954 54.9021 36.5496 54.868C36.6037 54.8338 36.6484 54.7865 36.6794 54.7305L37.9535 52.1557C38.0048 52.049 37.9535 51.9623 37.833 51.963Z"/><path fill="#74767B" d="M22.8193 55.4748H17.3569C17.2953 55.479 17.2358 55.4985 17.1837 55.5317C17.1316 55.5648 17.0887 55.6105 17.0588 55.6645L15.7881 58.1721C15.7351 58.2774 15.7823 58.3631 15.8935 58.3635L21.3538 58.3893C21.4162 58.3855 21.4766 58.366 21.5295 58.3326C21.5823 58.2992 21.6259 58.253 21.6561 58.1982L22.9298 55.6659C22.9822 55.5605 22.9329 55.4748 22.8193 55.4748Z"/><path fill="#74767B" d="M29.3882 55.4744H23.8084C23.7459 55.4784 23.6855 55.4981 23.6326 55.5316C23.5797 55.5651 23.5361 55.6114 23.5058 55.6662L22.232 58.2006C22.1787 58.307 22.2276 58.3934 22.3415 58.3941L27.9186 58.4203C27.9819 58.4167 28.0433 58.3971 28.097 58.3633C28.1507 58.3295 28.195 58.2827 28.2257 58.2271L29.4994 55.6679C29.5552 55.5612 29.5042 55.4744 29.3882 55.4744Z"/><path fill="#74767B" d="M36.0993 55.4744H30.3983C30.335 55.4784 30.2737 55.4983 30.22 55.5321C30.1664 55.566 30.1221 55.6128 30.0912 55.6682L28.7194 58.4244L34.629 58.4526C34.6929 58.4489 34.7549 58.429 34.8091 58.3948C34.8633 58.3606 34.9079 58.3132 34.9388 58.2571L36.2157 55.67C36.2707 55.5619 36.2181 55.4744 36.0993 55.4744Z"/><path fill="#74767B" d="M34.7987 58.8458L30.913 58.8255C30.9028 58.8255 30.8931 58.8215 30.8859 58.8143C30.8788 58.8071 30.8748 58.7974 30.8748 58.7873C30.8748 58.7771 30.8788 58.7674 30.8859 58.7602C30.8931 58.7531 30.9028 58.7491 30.913 58.7491L34.7987 58.7697C34.8947 58.7697 35.0007 58.6599 35.052 58.5559L37.0832 54.4406C37.0877 54.4315 37.0957 54.4245 37.1054 54.4213C37.1151 54.4181 37.1257 54.4188 37.1348 54.4234C37.1439 54.428 37.1509 54.436 37.1541 54.4457C37.1573 54.4553 37.1566 54.4659 37.152 54.475L35.1209 58.5904C35.0593 58.7133 34.9329 58.8458 34.7987 58.8458Z"/><path fill="#74767B" d="M18.7506 51.8077C18.7446 51.8077 18.7387 51.8063 18.7334 51.8036C18.7289 51.8013 18.7248 51.7982 18.7215 51.7944C18.7182 51.7907 18.7157 51.7862 18.7142 51.7815C18.7126 51.7767 18.712 51.7716 18.7124 51.7666C18.7128 51.7616 18.7142 51.7567 18.7165 51.7523L20.4519 48.3282C20.5115 48.2109 20.676 48.1561 20.8038 48.1561L25.0771 48.1048C25.0821 48.1046 25.0872 48.1055 25.0919 48.1073C25.0966 48.1091 25.1009 48.1119 25.1045 48.1155C25.1081 48.119 25.111 48.1232 25.1129 48.1279C25.1148 48.1326 25.1157 48.1376 25.1156 48.1427C25.1157 48.1528 25.1118 48.1625 25.1048 48.1697C25.0978 48.1769 25.0882 48.1811 25.0781 48.1813L20.8048 48.2312C20.6984 48.2312 20.5638 48.2794 20.5197 48.3634L18.7843 51.7874C18.7811 51.7936 18.7763 51.7987 18.7703 51.8023C18.7644 51.8059 18.7575 51.8078 18.7506 51.8077Z"/><path fill="#48494B" d="M52.3894 62.6037H48.6245L49.417 55.2723H51.696L52.3894 62.6037Z"/><path fill="#48494B" d="M53.1822 62.9122C53.1822 62.9401 53.1478 62.9632 53.1134 62.9635L48.0696 63C47.957 63 47.832 62.9112 47.832 62.7993V62.5497C47.832 62.4943 47.8851 62.4409 47.9253 62.4017C47.9712 62.3619 48.0302 62.3405 48.0909 62.3414L53.1099 62.4268C53.1419 62.4268 53.1822 62.4495 53.1822 62.4767V62.9122Z"/><path fill="#333435" d="M62.9418 47.65L42.8472 47.899C42.7858 47.9037 42.7266 47.9236 42.6748 47.9567C42.623 47.9899 42.5801 48.0353 42.5501 48.089L37.0711 58.8947C37.0178 58.9997 37.0646 59.0854 37.1744 59.0861L57.2401 59.2062C57.3044 59.2029 57.3668 59.1832 57.4213 59.1491C57.4759 59.1149 57.5209 59.0674 57.552 59.011L63.0602 47.8411C63.1142 47.7341 63.0605 47.6483 62.9418 47.65Z"/><path fill="#5C5E61" d="M57.2429 59.3625H57.2405L37.1752 59.242C37.1268 59.2439 37.0789 59.2332 37.036 59.2108C36.9931 59.1885 36.9568 59.1553 36.9307 59.1146C36.9056 59.0703 36.8923 59.0202 36.8923 58.9692C36.8923 58.9182 36.9056 58.8681 36.9307 58.8237L42.41 48.0184C42.4531 47.9395 42.5155 47.8728 42.5915 47.8246C42.6674 47.7764 42.7543 47.7483 42.8441 47.743L62.9387 47.4941C63.0485 47.4941 63.1452 47.5392 63.1969 47.6218C63.2227 47.6654 63.2366 47.715 63.2373 47.7657C63.2379 47.8164 63.2253 47.8664 63.2007 47.9106L57.6925 59.0802C57.6486 59.1623 57.584 59.2316 57.5052 59.2811C57.4263 59.3306 57.3359 59.3587 57.2429 59.3625ZM37.2282 58.9298L57.2422 59.0503C57.2774 59.0469 57.3113 59.0354 57.3412 59.0165C57.371 58.9977 57.3961 58.9721 57.4143 58.9418L62.9053 47.8067L42.85 48.0552C42.8174 48.0597 42.7863 48.0712 42.7587 48.0891C42.7312 48.1069 42.7079 48.1306 42.6906 48.1585L37.2282 58.9298Z"/><path fill="#74767B" d="M48.5809 48.5813L43.1129 48.6422C43.0515 48.647 42.9922 48.6669 42.9403 48.7001C42.8884 48.7333 42.8456 48.7788 42.8155 48.8326L41.5569 51.3171C41.5042 51.4204 41.5517 51.5051 41.6633 51.5044L47.1288 51.47C47.191 51.4656 47.2512 51.4458 47.3039 51.4124C47.3565 51.3789 47.4 51.3328 47.4303 51.2782L48.6914 48.7696C48.744 48.6639 48.6945 48.5799 48.5809 48.5813Z"/><path fill="#74767B" d="M55.1548 48.5066L49.5702 48.5689C49.5079 48.5734 49.4478 48.5934 49.3952 48.6269C49.3425 48.6604 49.299 48.7065 49.2686 48.761L48.0076 51.2717C47.9546 51.377 48.0041 51.4617 48.1181 51.461L53.7006 51.4266C53.7638 51.4225 53.8249 51.4025 53.8784 51.3687C53.9318 51.3348 53.9759 51.2881 54.0067 51.2328L55.2698 48.6977C55.3225 48.5913 55.2698 48.5066 55.1548 48.5066Z"/><path fill="#74767B" d="M61.8711 48.4329L56.1649 48.4966C56.1018 48.5009 56.0407 48.521 55.9872 48.5549C55.9337 48.5888 55.8895 48.6355 55.8586 48.6907L54.5955 51.2283C54.5424 51.3347 54.5955 51.4204 54.7104 51.4197L60.4138 51.3825C60.4777 51.3784 60.5396 51.3582 60.5937 51.324C60.6478 51.2898 60.6925 51.2426 60.7237 51.1866L61.9885 48.6239C62.0432 48.5172 61.9899 48.4315 61.8711 48.4329Z"/><path fill="#74767B" d="M46.8609 52.0022L41.3958 52.0328C41.3343 52.0373 41.2749 52.0571 41.2229 52.0902C41.1709 52.1234 41.128 52.169 41.098 52.2229L39.8335 54.7188C39.7805 54.822 39.8277 54.9081 39.9392 54.9081L45.4023 54.9033C45.4646 54.8991 45.5248 54.8793 45.5775 54.8459C45.6303 54.8125 45.6738 54.7664 45.7042 54.7119L46.9708 52.1915C47.0238 52.0869 46.9732 52.0015 46.8609 52.0022Z"/><path fill="#74767B" d="M53.4322 51.965L47.85 51.9964C47.7876 52.0007 47.7273 52.0206 47.6745 52.0541C47.6217 52.0876 47.5782 52.1338 47.5477 52.1885L46.2808 54.7112C46.2278 54.8169 46.2771 54.9023 46.391 54.9023L51.9712 54.8971C52.0344 54.8932 52.0956 54.8735 52.1491 54.8396C52.2027 54.8058 52.2469 54.759 52.2775 54.7036L53.5465 52.1561C53.5995 52.0501 53.5486 51.9643 53.4322 51.965Z"/><path fill="#74767B" d="M60.146 51.9272L54.4426 51.9592C54.3793 51.9633 54.3181 51.9832 54.2645 52.0171C54.2109 52.0511 54.1667 52.0979 54.1359 52.1534L52.8669 54.7033C52.8136 54.8104 52.8649 54.8968 52.9812 54.8968L58.6826 54.8916C58.7465 54.8876 58.8084 54.8675 58.8625 54.8333C58.9167 54.7991 58.9613 54.7518 58.9924 54.6957L60.2631 52.121C60.3178 52.0133 60.2644 51.9265 60.146 51.9272Z"/><path fill="#74767B" d="M45.1327 55.439H39.6703C39.6087 55.4432 39.5493 55.4628 39.4972 55.4959C39.4452 55.5291 39.4023 55.5747 39.3725 55.6287L38.1018 58.1366C38.0484 58.2399 38.0956 58.3273 38.2071 58.3277L43.6671 58.3538C43.7295 58.3499 43.79 58.3303 43.8428 58.2968C43.8956 58.2634 43.9392 58.2172 43.9694 58.1624L45.2432 55.6304C45.2955 55.5247 45.2463 55.439 45.1327 55.439Z"/><path fill="#74767B" d="M51.7013 55.4386H46.1215C46.0591 55.4427 45.9987 55.4623 45.9459 55.4958C45.8931 55.5292 45.8496 55.5754 45.8192 55.63L44.5455 58.1648C44.4921 58.2709 44.5413 58.3576 44.6549 58.358L50.232 58.3845C50.2953 58.3808 50.3566 58.3611 50.4103 58.3273C50.4639 58.2934 50.5081 58.2465 50.5387 58.191L51.8125 55.6318C51.8683 55.5254 51.8173 55.4386 51.7013 55.4386Z"/><path fill="#74767B" d="M58.4123 55.4383H52.7113C52.648 55.4423 52.5867 55.4621 52.533 55.496C52.4794 55.5299 52.4351 55.5767 52.4042 55.6321L51.0323 58.3883L56.9419 58.4162C57.0059 58.4125 57.0678 58.3926 57.122 58.3585C57.1762 58.3244 57.2209 58.277 57.2518 58.221L58.5287 55.6338C58.5837 55.5261 58.5307 55.4383 58.4123 55.4383Z"/><path fill="#74767B" d="M57.1117 58.81L53.226 58.7893C53.2159 58.7893 53.2063 58.7852 53.1992 58.778C53.1921 58.7709 53.1881 58.7612 53.1881 58.7511C53.1886 58.7412 53.1928 58.7318 53.1999 58.7248C53.2069 58.7178 53.2164 58.7137 53.2263 58.7133L57.112 58.7339C57.2081 58.7339 57.3141 58.6238 57.3654 58.5201L59.3965 54.4048C59.4011 54.3957 59.4091 54.3887 59.4188 54.3855C59.4285 54.3823 59.439 54.383 59.4482 54.3876C59.4573 54.3922 59.4642 54.4002 59.4675 54.4099C59.4707 54.4195 59.47 54.4301 59.4654 54.4392L57.4342 58.5549C57.3723 58.6771 57.2459 58.81 57.1117 58.81Z"/><path fill="#74767B" d="M41.0639 51.7719C41.0574 51.7719 41.0509 51.7703 41.0452 51.7671C41.0394 51.764 41.0346 51.7594 41.0311 51.7538C41.0277 51.7483 41.0257 51.7419 41.0254 51.7354C41.0251 51.7288 41.0265 51.7223 41.0295 51.7164L42.7649 48.2928C42.8245 48.1754 42.989 48.1206 43.1171 48.1186L47.3901 48.0676C47.3954 48.0671 47.4007 48.0677 47.4058 48.0694C47.4108 48.0711 47.4155 48.0738 47.4194 48.0774C47.4233 48.081 47.4265 48.0853 47.4286 48.0902C47.4308 48.0951 47.4319 48.1003 47.4319 48.1057C47.4319 48.111 47.4308 48.1162 47.4286 48.1211C47.4265 48.126 47.4233 48.1303 47.4194 48.1339C47.4155 48.1375 47.4108 48.1402 47.4058 48.1419C47.4007 48.1436 47.3954 48.1442 47.3901 48.1437L43.1174 48.1967C43.0111 48.1967 42.8765 48.2446 42.8327 48.3289L41.0973 51.7526C41.0939 51.7585 41.0891 51.7634 41.0832 51.7668C41.0774 51.7701 41.0707 51.7719 41.0639 51.7719Z"/></svg>